<svg width="14" height="12" viewBox="0 0 14 12" fill="none" xmlns="http://www.w3.org/2000/svg">
    <path fill-rule="evenodd" clip-rule="evenodd" d="M12.3063 4.42287V0.166672H11.2178V4.42287H10.6906C10.2304 4.42287 9.8573 4.79597 9.8573 5.25621V6.89992C9.8573 7.36016 10.2304 7.73325 10.6906 7.73325H11.2178V11.5952H12.3063V7.73325H12.8335C13.2937 7.73325 13.6668 7.36016 13.6668 6.89992V5.25621C13.6668 4.79597 13.2937 4.42287 12.8335 4.42287H12.3063ZM7.54438 0.166672H6.45594V1.90056H5.92873C5.4685 1.90056 5.0954 2.27366 5.0954 2.7339V4.37761C5.0954 4.83785 5.4685 5.21094 5.92873 5.21094H6.45594V11.5952H7.54438V5.21094H8.07159C8.53183 5.21094 8.90492 4.83785 8.90492 4.37761V2.7339C8.90492 2.27366 8.53183 1.90056 8.07159 1.90056H7.54438V0.166672ZM2.78248 6.53848V0.166672H1.69404V6.53848H1.16683C0.706592 6.53848 0.333496 6.91157 0.333496 7.37181V9.00904C0.333496 9.46928 0.706592 9.84237 1.16683 9.84237H1.69404V11.5904L2.78248 11.5952V9.84237H3.30969C3.76992 9.84237 4.14302 9.46928 4.14302 9.00904V7.37181C4.14302 6.91157 3.76992 6.53848 3.30969 6.53848H2.78248Z" fill="#2D3540"/>
</svg>
