<svg width="12" height="14" viewBox="0 0 12 14" fill="none" xmlns="http://www.w3.org/2000/svg">
    <path d="M2.7141 13.6667H9.27309C10.596 13.6667 11.2789 12.9714 11.2789 11.6362V2.35764C11.2789 1.02861 10.596 0.333336 9.27309 0.333336H2.7141C1.39738 0.333336 0.708252 1.02861 0.708252 2.35764V11.6362C0.708252 12.9714 1.39738 13.6667 2.7141 13.6667ZM2.8187 12.4361C2.22802 12.4361 1.93268 12.1284 1.93268 11.5562V2.43763C1.93268 1.87771 2.22802 1.55776 2.82485 1.55776H9.16233C9.75917 1.55776 10.0545 1.87156 10.0545 2.43763V11.5562C10.0545 12.1284 9.75917 12.4361 9.16849 12.4361H2.8187ZM3.75394 4.0866H8.2394C8.46706 4.0866 8.63319 3.90817 8.63319 3.68667C8.63319 3.47131 8.46706 3.30519 8.2394 3.30519H3.75394C3.52628 3.30519 3.354 3.47131 3.354 3.68667C3.354 3.90817 3.52628 4.0866 3.75394 4.0866ZM3.75394 6.18474H8.2394C8.46706 6.18474 8.63319 6.00631 8.63319 5.7848C8.63319 5.56945 8.46706 5.40333 8.2394 5.40333H3.75394C3.52628 5.40333 3.354 5.56945 3.354 5.7848C3.354 6.00631 3.52628 6.18474 3.75394 6.18474ZM3.75394 8.28288H5.93206C6.15357 8.28288 6.3197 8.1106 6.3197 7.89525C6.3197 7.67374 6.15357 7.50146 5.93206 7.50146H3.75394C3.52628 7.50146 3.354 7.67374 3.354 7.89525C3.354 8.1106 3.52628 8.28288 3.75394 8.28288Z" fill="#2D3540"/>
</svg>
