<svg width="14" height="14" viewBox="0 0 14 14" fill="none" xmlns="http://www.w3.org/2000/svg">
    <path d="M7.3836 6.32012L12.5584 3.34928C11.4371 1.60286 9.44579 0.442882 7.3836 0.333328V6.32012ZM6.99694 13.6538C8.54358 13.6538 10.0258 13.106 11.2115 12.1265L6.52006 7.54454C6.38473 7.41566 6.33962 7.3061 6.33962 7.09988V0.359106C2.99501 0.687767 0.333496 3.5555 0.333496 6.99033C0.333496 10.6378 3.34945 13.6538 6.99694 13.6538ZM13.6668 6.98388C13.6668 6.04301 13.4477 5.07636 13.0611 4.26437L7.81537 7.28032L11.9849 11.3789C13.0288 10.2125 13.6668 8.64008 13.6668 6.98388Z" fill="#2D3540"/>
</svg>
